<svg width="113" height="25" viewBox="0 0 113 25" fill="none" xmlns="http://www.w3.org/2000/svg">
<path fill-rule="evenodd" clip-rule="evenodd" d="M111.888 19.7175C107.23 26.6276 99.8528 24.6226 97.6372 23.0527C96.6943 23.6124 95.0409 24.8394 92.8362 24.6978C88.141 24.3962 86.4596 18.5252 86.4596 18.5252C86.4933 18.5487 85.061 18.9577 84.2869 18.9504C84.2769 20.6721 82.576 24.7849 77.9856 24.7323C72.8346 24.6735 71.7874 17.9586 71.7874 17.9586C71.7874 17.9586 71.2748 18.5814 69.3257 19.2018C69.4238 17.879 69.3521 24.5309 63.1783 24.6287C58.2976 24.7061 56.98 17.855 56.98 17.855C56.98 17.855 56.1333 18.6246 54.4924 18.8916C54.5967 17.5473 54.4272 24.6513 48.2526 24.6287C44.08 24.6136 42.6541 20.4085 42.765 19.8248C42.9065 19.081 41.3548 24.7333 37.3016 24.6453C35.629 24.6023 34.3821 23.5426 33.5996 22.1299C32.5521 23.1787 31.0313 24.6453 29.3253 24.6453C26.2629 24.6453 24.9128 22.4041 25.1415 16.0028C25.161 15.2436 25.0984 14.9449 24.2358 14.8314C23.7181 14.7558 23.1879 14.6127 22.6269 14.5372C22.4471 15.0622 20.922 24.4745 15.678 24.6531C13.9187 24.713 12.9567 23.3795 12.1667 22.3898C10.9557 23.7916 9.3571 24.6978 7.07975 24.6978C3.22209 24.6978 0.59375 21.969 0.59375 18.603C0.59375 15.2368 3.22209 12.5083 7.07975 12.5083C7.76182 12.5083 7.95329 12.5939 8.57641 12.7529C7.29495 2.54402 10.3212 0.948508 12.9686 0.948508C15.5102 0.948508 19.8523 6.11014 13.7426 19.2028C15.0991 23.108 18.0233 22.8871 19.4285 14.8481C19.7145 13.2139 18.9498 11.0088 20.1393 10.701C22.3136 10.1386 22.5443 11.8261 23.5638 12.1073C24.6418 12.4045 25.271 12.3755 26.3059 12.5646C28.0742 12.8668 28.7643 13.698 28.5489 15.5493C28.2901 17.8917 27.8375 21.3012 29.2175 21.7167C30.2126 22.0185 32.0296 20.2128 32.3484 19.2247C32.6671 18.2367 32.7337 17.8985 32.762 17.1738C32.8051 15.625 32.8592 14.4896 33.1611 13.3183C33.2903 12.865 33.4375 12.5648 34.0236 12.5443C34.5059 12.5336 35.3878 12.4065 35.776 12.6709C36.2934 13.0111 36.2288 13.3563 36.1694 14.2648C35.5676 27.218 40.1993 20.7516 41.5803 15.574C41.0886 9.71938 41.4262 1.05572 45.6191 0.910411C47.7997 0.834844 48.7638 2.36341 48.8698 3.50435C49.1698 6.72677 47.4897 12.0647 45.2802 15.6544C44.0174 22.979 50.8014 24.4272 51.8863 18.5808C50.1113 17.8423 48.1931 14.8534 49.7541 13.3969C50.63 12.5794 54.276 13.7538 54.3356 16.315C56.1241 15.8965 56.3629 15.013 56.3877 15.1594C55.896 9.30472 56.352 1.05579 60.5452 0.910486C62.7256 0.834919 63.6895 2.36349 63.7955 3.50442C64.0954 6.72684 62.4154 12.0647 60.2061 15.6545C58.9432 22.979 65.7274 24.4274 66.812 18.5809C65.4979 18.359 62.7238 15.1799 64.3244 13.3969C65.1797 12.4442 68.8124 14.4256 69.2191 16.3999C70.9371 15.9744 71.1705 15.119 71.1951 15.263C70.7033 9.40848 71.1593 1.15955 75.3525 1.01424C77.5329 0.938677 78.4968 2.46725 78.6028 3.60818C78.9027 6.83059 77.2227 12.1686 75.0132 15.7583C73.7505 23.0829 80.5346 24.5309 81.6195 18.6845C79.8136 18.4214 77.247 15.0647 79.3127 13.3475C80.138 12.6614 83.2915 14.4424 84.0296 16.4743C85.0553 16.4398 85.6937 16.1302 85.8306 16.099C84.1932 9.22603 85.4121 0.979425 89.9228 0.910587C92.3609 0.873416 94.7444 2.06388 93.6982 8.60263C92.6995 14.8414 89.1099 17.4595 89.1182 17.4995C89.3271 18.247 91.1691 24.5019 95.8076 21.2016C95.5675 20.7258 95.3271 20.2398 95.1927 19.6511C94.4239 16.2213 95.934 12.3475 100.038 11.7214C102.39 11.3627 104.605 12.3645 104.956 14.623C105.532 18.3186 101.718 20.995 100.268 21.5755C99.6182 21.2527 106.156 24.9214 110.036 17.5691C110.261 17.1493 110.532 17.1849 110.883 17.4012C111.132 17.5541 112.545 18.7258 111.888 19.7175ZM9.88585 17.6949C9.68843 17.1785 9.2833 16.0405 9.14003 15.5475C8.35102 14.9471 7.78785 14.8496 6.77509 14.8496C4.52442 14.8496 3.19971 16.6704 3.19971 18.6338C3.19971 20.597 4.64288 22.4181 6.89357 22.4181C8.84404 22.4181 10.3285 21.2577 10.7814 19.615C10.4644 18.9746 10.15 18.3861 9.88585 17.6949ZM12.9134 3.65088C11.332 3.65088 10.7955 6.95187 10.8996 9.76793C10.9917 12.2577 11.7868 14.4496 12.1993 15.4317C12.304 15.5548 12.2846 15.4747 12.378 15.6052C15.1239 10.3409 13.985 3.65088 12.9134 3.65088ZM45.845 3.75457C43.801 3.54946 43.8142 10.9997 44.068 12.6709C45.1295 11.1849 46.9736 4.15466 45.845 3.75457ZM60.7706 3.75457C58.7267 3.54946 58.7399 10.9997 58.9938 12.6709C60.0552 11.1849 61.8994 4.15466 60.7706 3.75457ZM75.5781 3.85823C73.534 3.65311 73.5472 11.1034 73.8011 12.7747C74.8625 11.2886 76.7067 4.25829 75.5781 3.85823ZM90.1484 3.31844C86.9638 3.878 87.7054 13.1687 88.1891 14.7981C91.9402 10.29 92.0175 3.14911 90.1484 3.31844ZM102.083 14.9286C101.922 14.3363 101.112 14.0197 100.553 14.0977C98.9541 14.2888 97.4033 16.0313 98.0036 18.6842C98.1372 19.275 98.4716 19.8189 98.4662 19.8008C102.045 17.7001 102.349 16.0448 102.083 14.9286ZM34.6505 10.4937C34.1935 10.4938 33.7467 10.3752 33.3667 10.1531C32.9867 9.93101 32.6904 9.61529 32.5155 9.24585C32.3405 8.87643 32.2947 8.4699 32.3839 8.0777C32.4729 7.68549 32.6931 7.32522 33.0162 7.04243C33.3393 6.75965 33.751 6.56707 34.1992 6.48905C34.6474 6.41102 35.112 6.45105 35.5343 6.60408C35.9566 6.75711 36.3174 7.01627 36.5712 7.34877C36.8251 7.68126 36.9606 8.07218 36.9606 8.47205C36.9606 8.73752 36.9009 9.0004 36.7848 9.24566C36.6688 9.49093 36.4986 9.71378 36.2841 9.90151C36.0695 10.0892 35.8149 10.2382 35.5346 10.3398C35.2543 10.4414 34.9539 10.4937 34.6505 10.4937Z" fill="#3E3E3E"/>
</svg>
